<svg width="4" height="16" viewBox="0 0 4 16" fill="none" xmlns="http://www.w3.org/2000/svg">
<path d="M2 8.83335C2.46024 8.83335 2.83333 8.46026 2.83333 8.00002C2.83333 7.53978 2.46024 7.16669 2 7.16669C1.53976 7.16669 1.16667 7.53978 1.16667 8.00002C1.16667 8.46026 1.53976 8.83335 2 8.83335Z" stroke="#96A09B" stroke-width="1.5" stroke-linecap="round" stroke-linejoin="round"/>
<path d="M2 14.6667C2.46024 14.6667 2.83333 14.2936 2.83333 13.8333C2.83333 13.3731 2.46024 13 2 13C1.53976 13 1.16667 13.3731 1.16667 13.8333C1.16667 14.2936 1.53976 14.6667 2 14.6667Z" stroke="#96A09B" stroke-width="1.5" stroke-linecap="round" stroke-linejoin="round"/>
<path d="M2 3.00001C2.46024 3.00001 2.83333 2.62691 2.83333 2.16668C2.83333 1.70644 2.46024 1.33334 2 1.33334C1.53976 1.33334 1.16667 1.70644 1.16667 2.16668C1.16667 2.62691 1.53976 3.00001 2 3.00001Z" stroke="#96A09B" stroke-width="1.5" stroke-linecap="round" stroke-linejoin="round"/>
</svg>
